<?xml version="1.0" standalone="no"?>
<!DOCTYPE svg PUBLIC "-//W3C//DTD SVG 20010904//EN"
 "http://www.w3.org/TR/2001/REC-SVG-20010904/DTD/svg10.dtd">
<svg version="1.0" xmlns="http://www.w3.org/2000/svg"
 width="256.000000pt" height="196.000000pt" viewBox="0 0 256.000000 196.000000"
 preserveAspectRatio="xMidYMid meet">

<g transform="translate(0.000000,196.000000) scale(0.100000,-0.100000)"
fill="#000000" stroke="none">
<path d="M680 1874 c-283 -19 -520 -36 -526 -38 -17 -7 -26 -383 -9 -410 11
-17 11 -105 -1 -511 -7 -269 -13 -562 -13 -651 l-1 -160 33 -31 c17 -16 39
-32 47 -35 8 -3 238 1 510 8 272 8 515 12 540 8 53 -6 98 8 122 39 16 21 26
21 544 39 399 13 530 21 538 30 8 9 9 212 6 665 -4 569 -7 654 -20 668 -14 13
-41 14 -205 7 -105 -5 -201 -4 -214 0 -13 5 -58 41 -100 80 -117 109 -96 102
-284 89 -89 -6 -176 -14 -193 -16 l-31 -5 -7 87 c-7 77 -11 93 -39 130 l-32
42 -75 0 c-41 -1 -307 -17 -590 -35z m70 -54 c0 -5 -5 -10 -11 -10 -5 0 -7 5
-4 10 3 6 8 10 11 10 2 0 4 -4 4 -10z m-90 -15 c0 -8 -7 -15 -15 -15 -8 0 -15
7 -15 15 0 8 7 15 15 15 8 0 15 -7 15 -15z m-211 -51 c17 -14 36 -43 42 -64
10 -33 9 -44 -9 -82 -26 -53 -66 -78 -125 -78 -82 0 -138 75 -116 155 13 46
18 45 12 -3 -11 -83 60 -146 137 -123 48 14 70 40 77 89 7 50 -18 99 -60 117
-26 12 -28 14 -10 15 12 0 35 -12 52 -26z m-84 6 c-3 -5 -13 -10 -21 -10 -21
0 -17 -17 7 -23 16 -4 20 -12 17 -38 -4 -45 -30 -59 -68 -37 -32 18 -35 14
-20 -29 9 -26 9 -27 -5 -9 -20 26 -19 76 1 105 21 29 106 69 89 41z m902 -167
c-2 -16 -4 -5 -4 22 0 28 2 40 4 28 2 -13 2 -35 0 -50z m-2 -678 c-5 -375 -11
-605 -17 -605 -10 0 -2 1179 8 1209 2 8 7 11 10 8 4 -3 3 -279 -1 -612z m-168
90 c2 -181 -1 -335 -5 -342 -5 -7 -114 -16 -337 -27 -434 -21 -391 -24 -437
24 l-38 41 0 295 c0 255 2 295 15 301 17 6 696 42 760 39 l40 -1 2 -330z
m1193 11 c0 -13 3 -38 6 -55 l7 -31 -77 0 -76 0 0 49 0 50 43 4 c98 9 97 9 97
-17z m-150 -41 l0 -55 -75 0 -75 0 0 55 0 55 75 0 75 0 0 -55z m-332 -12 l3
-53 -70 0 -71 0 0 49 c0 49 1 50 33 54 17 2 48 4 67 3 l35 -1 3 -52z m170 6
l3 -46 -73 -6 c-40 -2 -76 -3 -80 0 -5 2 -8 27 -8 54 l0 50 78 -3 77 -3 3 -46z
m-328 -8 c0 -48 0 -48 -37 -55 -81 -13 -83 -12 -83 49 l0 55 60 0 60 0 0 -49z
m490 -106 l0 -55 -70 0 -70 0 0 34 c0 19 -3 41 -6 49 -6 18 15 24 94 26 l52 1
0 -55z m160 6 l0 -49 -70 -4 -70 -3 0 53 0 52 70 0 70 0 0 -49z m-490 -16 l0
-55 -70 0 -70 0 0 49 0 50 43 4 c106 9 97 14 97 -48z m170 5 l0 -50 -37 0
c-21 0 -54 -3 -74 -6 l-37 -6 -3 52 c-2 28 -2 54 0 56 2 2 37 4 78 4 l73 0 0
-50z m-328 -7 c3 -27 4 -49 4 -49 -1 -1 -29 -4 -63 -8 l-63 -7 0 56 0 55 59 0
59 0 4 -47z m156 -227 c2 -33 -1 -52 -10 -57 -7 -5 -75 -8 -151 -8 l-138 0 3
52 3 52 80 6 c44 3 109 5 145 5 l65 -1 3 -49z m464 7 c32 -29 16 -73 -27 -73
-42 0 -59 44 -29 74 20 20 33 20 56 -1z m-1548 -204 c3 -17 6 -53 6 -79 0 -45
-2 -48 -31 -54 -17 -3 -80 -6 -139 -6 l-107 0 -7 46 c-3 26 -6 62 -6 80 l0 33
63 4 c34 2 96 4 138 5 l77 2 6 -31z m536 -188 c0 -30 -5 -51 -13 -54 -9 -3
-11 7 -9 37 6 80 22 92 22 17z"/>
<path d="M625 1261 c-7 -12 12 -24 25 -16 11 7 4 25 -10 25 -5 0 -11 -4 -15
-9z"/>
<path d="M740 1254 c0 -17 22 -14 28 4 2 7 -3 12 -12 12 -9 0 -16 -7 -16 -16z"/>
<path d="M680 1205 c-157 -7 -286 -13 -287 -14 -7 -3 -2 -418 5 -428 7 -10 58
-11 248 -3 131 6 267 13 302 16 l62 6 0 213 c0 185 -2 214 -16 219 -9 3 -19 5
-22 4 -4 0 -135 -7 -292 -13z"/>
<path d="M394 695 c-8 -19 3 -35 26 -35 19 0 30 17 23 38 -6 17 -42 15 -49 -3z"/>
</g>
</svg>
